<?xml version="1.0" standalone="no"?>
<!DOCTYPE svg PUBLIC "-//W3C//DTD SVG 20010904//EN"
 "http://www.w3.org/TR/2001/REC-SVG-20010904/DTD/svg10.dtd">
<svg version="1.0" xmlns="http://www.w3.org/2000/svg"
 width="300.000000pt" height="59.000000pt" viewBox="0 0 300.000000 59.000000"
 preserveAspectRatio="xMidYMid meet">
<metadata>
Created by potrace 1.10, written by Peter Selinger 2001-2011
</metadata>
<g transform="translate(0.000000,59.000000) scale(0.100000,-0.100000)"
fill="#000000" stroke="none">
<path d="M170 500 c0 -11 -7 -20 -15 -20 -8 0 -15 -9 -15 -20 0 -11 -7 -20
-15 -20 -13 0 -15 -26 -15 -171 0 -159 1 -171 18 -164 55 24 184 23 222 0 4
-3 6 3 3 13 -6 25 -86 73 -133 79 l-40 6 0 149 0 148 28 -6 c43 -10 106 -39
119 -56 8 -9 14 -63 16 -154 l3 -139 -1 155 0 154 -63 33 c-74 39 -112 43
-112 13z m40 -318 c19 -2 40 -8 45 -14 7 -8 4 -9 -8 -4 -10 3 -35 6 -55 6
l-37 0 5 147 5 148 5 -140 5 -140 35 -3z m-18 -32 c64 0 60 -5 -9 -13 l-53 -6
2 147 2 147 3 -137 4 -138 51 0z"/>
<path d="M477 506 c-20 -8 -53 -26 -72 -40 l-35 -27 0 -170 c0 -101 4 -168 9
-164 39 23 160 24 221 1 13 -5 15 16 12 161 -2 93 -7 170 -13 171 -5 2 -9 12
-9 23 0 10 -7 19 -15 19 -8 0 -15 9 -15 20 0 24 -27 26 -83 6z m63 -156 l0
-150 -25 0 c-27 0 -99 -33 -110 -50 -19 -30 -25 3 -25 134 l0 144 36 23 c34
20 98 47 117 49 4 0 7 -67 7 -150z m30 -34 l0 -144 -49 -4 c-58 -4 -59 7 -1
16 l40 6 0 135 c0 74 2 135 5 135 3 0 5 -65 5 -144z m30 -40 l0 -145 -57 6
c-74 7 -80 13 -15 13 l52 0 0 135 c0 83 4 135 10 135 6 0 10 -55 10 -144z"/>
<path d="M1593 415 c-3 -9 -2 -39 1 -66 l7 -51 -23 16 c-84 59 -172 -61 -99
-135 33 -32 65 -37 99 -13 12 8 22 10 22 5 0 -6 7 -11 15 -11 13 0 15 22 15
135 0 115 -2 135 -15 135 -9 0 -18 -7 -22 -15z m-21 -127 c39 -30 17 -108 -31
-108 -48 0 -76 65 -42 99 24 24 50 27 73 9z"/>
<path d="M2742 367 c4 -64 3 -65 -16 -51 -54 38 -126 -4 -126 -74 0 -61 60
-109 107 -84 10 6 30 8 45 5 l26 -5 -1 133 c-2 122 -4 134 -21 137 -17 4 -18
-2 -14 -61z m-18 -83 c22 -22 20 -67 -4 -89 -27 -25 -71 -10 -84 27 -20 56 48
103 88 62z"/>
<path d="M756 299 c19 -61 34 -118 34 -125 0 -8 10 -14 24 -14 21 0 26 9 52
100 15 56 31 95 34 88 4 -7 18 -52 31 -100 20 -74 27 -88 44 -88 17 0 25 18
56 125 34 115 35 125 18 125 -19 0 -19 -1 -53 -134 -9 -32 -17 -61 -20 -63 -2
-2 -16 41 -31 97 -25 86 -31 100 -49 100 -18 0 -25 -13 -45 -87 -32 -119 -36
-124 -50 -67 -31 127 -41 154 -60 154 -17 0 -16 -9 15 -111z"/>
<path d="M2010 287 c0 -68 3 -126 6 -130 3 -3 12 -3 20 0 10 3 14 22 14 59 0
74 25 74 65 0 26 -48 59 -75 74 -61 2 3 -12 30 -33 60 l-36 55 25 10 c46 17
46 97 0 118 -14 7 -50 12 -80 12 l-55 0 0 -123z m124 77 c33 -33 11 -64 -46
-64 -38 0 -38 0 -38 40 0 39 1 40 34 40 19 0 42 -7 50 -16z"/>
<path d="M1095 317 c-10 -8 -15 -19 -11 -26 6 -9 11 -9 21 -1 20 17 69 8 73
-12 3 -14 -4 -18 -30 -18 -50 0 -80 -25 -76 -63 4 -43 46 -59 88 -35 26 15 29
15 35 1 11 -30 18 -2 16 65 -1 54 -6 70 -23 85 -24 20 -67 22 -93 4z m85 -96
c0 -25 -24 -43 -52 -39 -31 4 -36 36 -6 47 38 16 58 13 58 -8z"/>
<path d="M1260 242 c0 -72 3 -89 15 -89 12 0 15 13 15 57 0 42 5 61 18 73 44
40 72 10 72 -77 0 -43 3 -56 15 -56 12 0 15 14 15 70 0 57 -4 74 -20 90 -24
24 -57 26 -82 3 -17 -15 -18 -15 -18 0 0 10 -7 17 -15 17 -12 0 -15 -16 -15
-88z"/>
<path d="M1695 305 c-29 -28 -34 -88 -10 -122 22 -31 74 -39 115 -18 24 12 29
20 21 28 -9 9 -16 8 -31 -1 -28 -17 -54 -15 -73 6 -10 10 -17 22 -17 25 0 4
32 7 70 7 l70 0 -6 28 c-15 67 -93 93 -139 47z m93 -17 c25 -25 13 -36 -38
-36 -33 -1 -50 3 -50 12 0 20 22 36 50 36 14 0 31 -5 38 -12z"/>
<path d="M1872 243 c2 -70 6 -88 18 -88 11 0 16 16 20 65 5 62 6 65 33 68 19
2 27 9 27 23 0 24 -27 25 -52 2 -17 -15 -18 -15 -18 0 0 10 -7 17 -15 17 -13
0 -15 -14 -13 -87z"/>
<path d="M2243 306 c-35 -30 -39 -95 -7 -126 30 -31 84 -36 114 -12 31 25 19
40 -15 22 -31 -17 -78 -4 -83 23 -3 15 5 17 62 17 64 0 66 1 66 25 0 36 -42
75 -79 75 -17 0 -42 -10 -58 -24z m95 -18 c26 -26 13 -38 -38 -38 -34 0 -50 4
-50 13 0 21 22 37 50 37 14 0 31 -5 38 -12z"/>
<path d="M2441 319 c-19 -8 -21 -12 -11 -24 9 -11 16 -12 26 -4 19 16 68 7 72
-13 3 -14 -3 -18 -27 -18 -68 0 -105 -36 -81 -80 15 -28 55 -36 85 -16 14 9
25 12 25 7 0 -5 7 -11 15 -15 12 -4 15 6 15 64 0 57 -4 74 -20 90 -21 21 -60
25 -99 9z m89 -97 c0 -26 -20 -42 -51 -42 -41 0 -47 38 -9 53 33 12 60 7 60
-11z"/>
<path d="M2836 311 c-27 -30 -17 -64 22 -77 45 -14 61 -32 42 -45 -8 -5 -24
-7 -35 -3 -35 10 -48 9 -52 -2 -4 -12 38 -34 65 -34 29 0 62 29 62 54 0 27
-13 39 -54 53 -17 5 -32 15 -34 21 -5 17 28 27 48 14 14 -8 21 -8 30 3 9 11 7
16 -9 24 -30 17 -66 13 -85 -8z"/>
</g>
</svg>
